<?xml version="1.0" encoding="UTF-8" standalone="no"?>
<!DOCTYPE svg PUBLIC "-//W3C//DTD SVG 1.1//EN" "http://www.w3.org/Graphics/SVG/1.1/DTD/svg11.dtd">
<svg width="100%" height="100%" viewBox="0 0 2838 542" version="1.1" xmlns="http://www.w3.org/2000/svg" xmlns:xlink="http://www.w3.org/1999/xlink" xml:space="preserve" xmlns:serif="http://www.serif.com/" style="fill-rule:evenodd;clip-rule:evenodd;stroke-linejoin:round;stroke-miterlimit:2;">
    <g transform="matrix(4.16667,0,0,4.16667,0,0)">
        <path d="M254.923,34.634C246.144,34.634 240.849,42.511 240.849,50.381L268.698,50.381C268.391,42.663 264.156,34.634 254.923,34.634ZM241.293,63.249C241.599,73.846 250.381,81.26 261.436,81.26C268.24,81.26 273.841,79.602 280.045,76.268L284.445,87.926C276.419,93.526 266.885,95.791 258.401,95.791C233.422,95.791 222.828,77.631 222.828,58.401C222.828,37.968 234.938,21.018 255.374,21.018C274.747,21.018 287.471,35.693 287.471,57.95L287.471,63.249L241.293,63.249Z" style="fill:rgb(21,41,52);fill-rule:nonzero;"/>
        <path d="M389.501,94.28L389.501,50.832C389.501,42.815 387.996,36.448 379.062,36.448C372.552,36.448 366.486,39.942 361.792,43.722C361.955,44.321 361.955,45.381 361.955,46.301L361.955,94.28L343.785,94.28L343.785,51.136C343.785,43.11 342.267,36.448 333.497,36.448C326.984,36.448 320.936,39.942 316.228,43.722L316.228,94.28L298.064,94.28L298.064,22.677L313.353,22.677L315.171,30.55C323.042,24.5 331.224,21.013 339.544,21.013C348.482,21.013 354.992,25.102 358.316,31.761C366.642,24.642 376.033,21.013 383.898,21.013C396.164,21.013 407.519,26.921 407.519,45.688L407.519,94.28L389.501,94.28Z" style="fill:rgb(21,41,52);fill-rule:nonzero;"/>
        <path d="M449.906,34.634C441.125,34.634 435.83,42.511 435.83,50.381L463.691,50.381C463.382,42.663 459.146,34.634 449.906,34.634ZM436.285,63.249C436.589,73.846 445.375,81.26 456.416,81.26C463.23,81.26 468.837,79.602 475.048,76.268L479.429,87.926C471.398,93.526 461.869,95.791 453.39,95.791C428.412,95.791 417.818,77.631 417.818,58.401C417.818,37.968 429.931,21.018 450.365,21.018C469.74,21.018 482.453,35.693 482.453,57.95L482.453,63.249L436.285,63.249Z" style="fill:rgb(21,41,52);fill-rule:nonzero;"/>
        <path d="M533.464,39.482C530.453,37.663 527.263,37.212 525.001,37.212C520.757,37.212 516.07,39.178 511.216,43.57L511.216,94.28L493.056,94.28L493.056,22.677L508.347,22.677L510.314,30.246C517.728,23.735 523.33,21.018 530.14,21.018C533.628,21.018 537.41,22.073 540.132,24.039L533.464,39.482Z" style="fill:rgb(21,41,52);fill-rule:nonzero;"/>
        <path d="M569.507,34.647C562.843,34.647 557.544,39.026 557.544,47.203C557.544,54.764 562.238,61.131 570.261,61.131C577.371,61.131 582.984,56.739 582.984,47.958C582.984,41.296 577.984,34.647 569.507,34.647ZM556.937,96.555C554.511,98.221 550.886,100.947 550.886,105.939C550.886,111.998 558.447,117.144 570.861,117.144C581.316,117.144 589.029,113.81 589.029,108.213C589.029,98.977 564.966,99.889 556.937,96.555ZM569.355,130C547.861,130 535.289,120.322 535.289,108.82C535.289,100.643 541.191,94.897 548.464,91.711C544.976,89.897 543.613,85.965 543.613,82.78C543.613,78.387 546.642,73.239 552.701,69.463C544.976,65.514 540.279,56.587 540.279,47.511C540.279,33.879 550.582,20.71 569.957,20.71C575.712,20.71 580.406,22.077 583.587,23.887C584.494,24.347 584.941,24.039 585.402,23.44C589.636,19.499 596,16.626 607.953,17.837L604.173,31.301C600.384,30.55 596.912,30.094 594.029,31.301C598.265,35.849 600.839,41.144 600.839,49.326C600.839,64.914 587.517,75.063 571.46,75.063C567.683,75.063 564.81,74.758 561.791,73.69C560.576,75.66 559.966,77.18 559.966,79.446C559.966,90.201 608.855,80.053 608.855,106.242C608.855,118.646 596.294,130 569.355,130Z" style="fill:rgb(21,41,52);fill-rule:nonzero;"/>
        <path d="M662.154,94.28L662.154,52.199C662.154,44.781 660.792,36.604 651.556,36.604C645.193,36.604 638.99,39.942 633.388,44.17L633.388,94.28L615.228,94.28L615.228,22.677L630.669,22.677L632.632,30.398C640.345,24.642 648.066,21.013 657.761,21.013C668.666,21.013 680.32,27.524 680.32,46.748L680.32,94.28L662.154,94.28Z" style="fill:rgb(21,41,52);fill-rule:nonzero;"/>
        <path d="M57.426,0.888C42.755,0.971 28.115,6.613 16.924,17.806C-5.641,40.372 -5.641,76.963 16.924,99.524C38.026,120.627 71.395,121.988 94.092,103.613C116.782,121.988 150.15,120.627 171.258,99.524C193.82,76.963 193.82,40.376 171.258,17.806C150.15,-3.296 116.782,-4.654 94.087,13.718C83.617,5.237 70.869,0.962 58.111,0.888L57.426,0.888ZM62.319,63.202L98.959,26.565C116.506,9.378 144.764,9.473 162.178,26.886C179.697,44.413 179.697,72.928 162.178,90.444C146.199,106.424 121.089,107.822 103.502,94.662L112.698,85.453C125.165,93.707 142.119,92.344 153.096,81.364C153.715,80.748 154.512,79.94 155.059,79.201C165.58,66.59 164.936,47.802 153.096,35.967C140.561,23.428 120.236,23.428 107.697,35.967L107.702,35.97L107.697,35.97L71.403,72.276L71.403,72.283L71.395,72.283C63.888,79.793 51.666,79.793 44.159,72.283C36.679,64.811 36.657,52.659 44.074,45.141C44.101,45.111 44.141,45.081 44.168,45.054C44.189,45.029 44.217,45.003 44.239,44.977C50.151,39.122 58.938,37.911 66.056,41.301L53.239,54.127C50.733,56.631 50.733,60.702 53.239,63.202C54.493,64.463 56.136,65.088 57.781,65.088C59.421,65.088 61.067,64.463 62.319,63.202ZM26.004,90.444C8.479,72.918 8.479,44.413 26.004,26.886C41.976,10.91 67.093,9.508 84.68,22.668L75.479,31.873C63.013,23.627 46.056,24.985 35.079,35.967C34.389,36.657 33.755,37.373 33.137,38.119C22.594,50.732 23.239,69.524 35.079,81.364C47.616,93.908 67.941,93.899 80.479,81.364L80.47,81.354L80.482,81.354L116.777,45.051L116.777,45.042L116.777,45.047C124.292,37.537 136.506,37.537 144.016,45.047C151.496,52.529 151.523,64.68 144.102,72.198C144.053,72.231 144.004,72.283 143.959,72.336C138.049,78.203 129.253,79.428 122.12,76.035L134.936,63.202C137.448,60.702 137.448,56.635 134.936,54.127C132.43,51.622 128.368,51.622 125.857,54.127L89.231,90.748C80.511,99.307 69.142,103.586 57.768,103.586C46.267,103.586 34.762,99.201 26.004,90.444Z" style="fill:rgb(0,157,220);fill-rule:nonzero;"/>
    </g>
</svg>
